<svg xmlns="http://www.w3.org/2000/svg" xmlns:xlink="http://www.w3.org/1999/xlink" width="30" height="30" viewBox="0 0 30 30">
  <defs>
    <clipPath id="clip-path">
      <rect id="Rectangle_6923" data-name="Rectangle 6923" width="30" height="30" transform="translate(-136 934)" fill="#fff" stroke="#707070" stroke-width="1"/>
    </clipPath>
  </defs>
  <g id="Mask_Group_451" data-name="Mask Group 451" transform="translate(136 -934)" clip-path="url(#clip-path)">
    <g id="Group_24461" data-name="Group 24461" transform="translate(-148.237 999.145)">
      <path id="Path_10915" data-name="Path 10915" d="M33.98-12.653h-12.9a3.007,3.007,0,0,1-.346-.126,1.231,1.231,0,0,1-.708-1.186q0-7.433,0-14.866a1.463,1.463,0,0,1,.025-.291,1.119,1.119,0,0,1,.933-.98,11,11,0,0,1,1.542-.016c0,.585,0,1.183,0,1.781a1.867,1.867,0,0,0,1.887,1.926q3.116.022,6.233,0A1.812,1.812,0,0,0,32.5-28.089c.059-.613.023-1.236.029-1.854,0-.068,0-.137,0-.209.459,0,.889-.017,1.317,0a1.219,1.219,0,0,1,1.178,1.181c.011.188.005.377.005.566q0,7.179-.006,14.358a1.912,1.912,0,0,1-.137.7A1.235,1.235,0,0,1,33.98-12.653ZM24.4-22.9c-.272-.277-.525-.537-.781-.795a.611.611,0,0,0-.6-.191.62.62,0,0,0-.291,1.058c.384.4.78.785,1.172,1.175a.637.637,0,0,0,1.018-.005q.871-.868,1.74-1.739c.235-.235.477-.462.7-.707a.618.618,0,0,0-.311-1.031.636.636,0,0,0-.632.214C25.755-24.256,25.093-23.593,24.4-22.9Zm.013,5.017c-.288-.294-.535-.554-.789-.8a.62.62,0,0,0-.906-.035.622.622,0,0,0,.028.919q.583.591,1.173,1.173a.623.623,0,0,0,.962.005q1.218-1.211,2.43-2.429a.62.62,0,0,0,.027-.919.62.62,0,0,0-.906.036q-.853.845-1.7,1.7C24.632-18.135,24.537-18.02,24.415-17.883Zm6.244-4.772c.39,0,.781,0,1.171,0a.635.635,0,0,0,.7-.621.632.632,0,0,0-.694-.629q-1.181,0-2.362,0a.632.632,0,0,0-.693.63.631.631,0,0,0,.684.619C29.865-22.653,30.262-22.655,30.659-22.655Zm0,3.751c-.39,0-.781,0-1.171,0a.635.635,0,0,0-.7.62.632.632,0,0,0,.693.629q1.181,0,2.362,0a.632.632,0,0,0,.693-.63.635.635,0,0,0-.7-.62C31.439-18.905,31.048-18.9,30.658-18.9Z" transform="translate(0 -27.492)" fill="#bfbfbf"/>
      <path id="Path_10916" data-name="Path 10916" d="M67.089-58.9a1.968,1.968,0,0,1,.842-1,1.866,1.866,0,0,1,2.605.807.284.284,0,0,0,.319.2c.364-.013.729-.007,1.094,0a.623.623,0,0,1,.66.662q.005,1.211,0,2.421a.62.62,0,0,1-.658.665q-3.1,0-6.191,0a.618.618,0,0,1-.651-.651q-.006-1.22,0-2.441a.622.622,0,0,1,.667-.656C66.212-58.9,66.648-58.9,67.089-58.9Z" transform="translate(-41.327 0)" fill="#bfbfbf"/>
    </g>
  </g>
</svg>
