<svg id="Group_103604" data-name="Group 103604" xmlns="http://www.w3.org/2000/svg" xmlns:xlink="http://www.w3.org/1999/xlink" width="512" height="512" viewBox="0 0 512 512">
  <defs>
    <linearGradient id="linear-gradient" x1="0.5" y1="0.017" x2="0.5" y2="1.846" gradientUnits="objectBoundingBox">
      <stop offset="0" stop-color="#fec34d"/>
      <stop offset="1" stop-color="#f048c6"/>
    </linearGradient>
    <linearGradient id="linear-gradient-2" x1="0.5" y1="-0.05" x2="0.5" y2="0.946" xlink:href="#linear-gradient"/>
  </defs>
  <g id="Group_103599" data-name="Group 103599">
    <rect id="Rectangle_34663" data-name="Rectangle 34663" width="512" height="512" fill="none"/>
  </g>
  <g id="logo_dark_bg" data-name="logo dark bg" transform="translate(425.655 99)">
    <g id="Group_102225" data-name="Group 102225" transform="translate(-368.655 208.866)">
      <path id="Path_186755" data-name="Path 186755" d="M517.971,154.856v57.558H505.143v-7.436a20.863,20.863,0,0,1-8.244,6.144,27.859,27.859,0,0,1-10.833,2.048,30.549,30.549,0,0,1-15.037-3.664,26.079,26.079,0,0,1-10.348-10.348,31.39,31.39,0,0,1-3.72-15.522,31.076,31.076,0,0,1,3.72-15.466,26.18,26.18,0,0,1,10.348-10.3,30.548,30.548,0,0,1,15.037-3.664,26.662,26.662,0,0,1,10.292,1.939,22.658,22.658,0,0,1,8.139,5.712v-7Zm-18.108,41.821q4.852-4.956,4.851-13.042t-4.851-13.042a16.468,16.468,0,0,0-12.287-4.956,16.294,16.294,0,0,0-12.234,4.956q-4.8,4.961-4.795,13.042t4.795,13.042a16.272,16.272,0,0,0,12.234,4.956A16.458,16.458,0,0,0,499.863,196.678Z" transform="translate(-456.96 -129.2)" fill="#131414"/>
      <path id="Path_186756" data-name="Path 186756" d="M683.21,209.4a27.687,27.687,0,0,1-11.1-10.51,31.066,31.066,0,0,1,0-30.451,27.909,27.909,0,0,1,11.047-10.454,33.641,33.641,0,0,1,16.113-3.773,31.065,31.065,0,0,1,14.929,3.449,22.392,22.392,0,0,1,9.646,9.916l-10.348,6.035a16.472,16.472,0,0,0-6.2-5.982,18.084,18.084,0,0,0-20.64,2.909q-4.961,4.907-4.96,13.1t4.9,13.1a18.172,18.172,0,0,0,20.7,2.909,16.425,16.425,0,0,0,6.2-5.982l10.348,6.035a23.324,23.324,0,0,1-9.755,9.969,30.438,30.438,0,0,1-14.82,3.5,33.725,33.725,0,0,1-16.06-3.773Z" transform="translate(-598.486 -129.2)" fill="#131414"/>
      <path id="Path_186757" data-name="Path 186757" d="M888.5,184.751a15.871,15.871,0,0,1-5.768,2.909,25.981,25.981,0,0,1-7.169.97q-9.487,0-14.658-4.956t-5.174-14.444V117.6H869.2v13.151h15.413v10.78H869.2v27.377q0,4.2,2.1,6.414a7.712,7.712,0,0,0,5.873,2.209,11.845,11.845,0,0,0,7.545-2.371l3.773,9.593Z" transform="translate(-724.228 -104.663)" fill="#131414"/>
      <path id="Path_186758" data-name="Path 186758" d="M979.15,92.224a7.947,7.947,0,0,1,0-11.535,8.659,8.659,0,0,1,6.144-2.318,8.9,8.9,0,0,1,6.144,2.209,7.126,7.126,0,0,1,2.48,5.55,8.129,8.129,0,0,1-2.424,5.982,8.4,8.4,0,0,1-6.2,2.427,8.531,8.531,0,0,1-6.144-2.318Zm-.646,11.8h13.474v57.558H978.5Z" transform="translate(-805.286 -78.37)" fill="#131414"/>
      <path id="Path_186759" data-name="Path 186759" d="M1116.883,88.19v79.979h-12.934v-7.436a20.862,20.862,0,0,1-8.244,6.144,27.858,27.858,0,0,1-10.833,2.048,30.326,30.326,0,0,1-14.929-3.664,26.319,26.319,0,0,1-10.4-10.4,33.481,33.481,0,0,1,0-30.88,26.441,26.441,0,0,1,10.4-10.348,30.326,30.326,0,0,1,14.929-3.664,27.368,27.368,0,0,1,10.454,1.939,21.016,21.016,0,0,1,8.083,5.82V88.19Zm-21.666,66.989a15.971,15.971,0,0,0,6.144-6.305,21.011,21.011,0,0,0,0-18.968,15.992,15.992,0,0,0-6.144-6.305,18.361,18.361,0,0,0-17.465,0,15.994,15.994,0,0,0-6.144,6.305,21.012,21.012,0,0,0,0,18.968,15.972,15.972,0,0,0,6.144,6.305,18.361,18.361,0,0,0,17.465,0Z" transform="translate(-858.301 -84.952)" fill="#131414"/>
      <path id="Path_186760" data-name="Path 186760" d="M1328.241,154.856v57.558h-12.828v-7.436a20.864,20.864,0,0,1-8.244,6.144,27.859,27.859,0,0,1-10.833,2.048,30.548,30.548,0,0,1-15.037-3.664,26.078,26.078,0,0,1-10.348-10.348,31.389,31.389,0,0,1-3.72-15.522,31.074,31.074,0,0,1,3.72-15.466,26.178,26.178,0,0,1,10.348-10.3,30.548,30.548,0,0,1,15.037-3.664,26.662,26.662,0,0,1,10.292,1.939,22.657,22.657,0,0,1,8.139,5.712v-7Zm-18.108,41.821q4.853-4.956,4.851-13.042t-4.851-13.042a16.468,16.468,0,0,0-12.287-4.956,16.294,16.294,0,0,0-12.234,4.956q-4.8,4.961-4.795,13.042t4.795,13.042a16.272,16.272,0,0,0,12.234,4.956A16.458,16.458,0,0,0,1310.133,196.678Z" transform="translate(-1000.028 -129.2)" fill="#131414"/>
      <path id="Path_186761" data-name="Path 186761" d="M1533.472,156.17l-26.945,62.195q-3.774,9.379-9.161,13.2a21.959,21.959,0,0,1-13.042,3.825,26.787,26.787,0,0,1-8.515-1.4,18.818,18.818,0,0,1-6.9-3.881l5.388-9.916a14.746,14.746,0,0,0,4.58,2.912,14.007,14.007,0,0,0,5.336,1.078,9.164,9.164,0,0,0,5.873-1.833,16.245,16.245,0,0,0,4.257-6.144l.97-2.262L1470.2,156.173h14.012l18.108,42.577,18.216-42.577h12.933Z" transform="translate(-1135.2 -130.514)" fill="#131414"/>
    </g>
    <g id="Group_102226" data-name="Group 102226" transform="translate(-232.655)">
      <path id="Path_186762" data-name="Path 186762" d="M91.155,0a31.922,31.922,0,0,1-1.916,6.417A62.687,62.687,0,0,0,5.682,88.111C2.734,89.147.666,89.727,0,89.915c9.58,3.238,33.9,6.18,49.792.719a.2.2,0,0,0,.059-.016c6.417-1.863,11-5.257,12.759-10.068,2.862-7.829-1.514-14.015-9.537-21.085a.187.187,0,0,1-.043-.033C42.158,49.937,32.571,40.278,28.69,26.048l.033.033C42.936,42.438,60.173,51.49,73.667,49.67a21.8,21.8,0,0,0,8.838-3.153C94.443,38.979,97.206,20.5,91.155,0ZM72.5,39.252a10.509,10.509,0,1,1,9.075-11.769A10.51,10.51,0,0,1,72.5,39.252Z" fill="url(#linear-gradient)"/>
      <path id="Path_186763" data-name="Path 186763" d="M137.354,117.226h.01L84.129,202.86h-.01l-53.1-85.41a72.682,72.682,0,0,0,32.657,7.69,71.028,71.028,0,0,0,31.315-7.034A111.339,111.339,0,0,1,70,168.607a111.8,111.8,0,0,0,52.654-73.4,112.3,112.3,0,0,0-5.623-64.42,62.642,62.642,0,0,1,20.324,86.436Z" transform="translate(-20.791 -20.636)" fill="url(#linear-gradient-2)"/>
    </g>
  </g>
</svg>
