<svg id="star" xmlns="http://www.w3.org/2000/svg" xmlns:xlink="http://www.w3.org/1999/xlink" width="11" height="11" viewBox="0 0 11 11">
  <defs>
    <linearGradient id="linear-gradient" x1="0.5" x2="0.5" y2="1" gradientUnits="objectBoundingBox">
      <stop offset="0" stop-color="#fec34d"/>
      <stop offset="0.263" stop-color="#f88c83"/>
      <stop offset="1" stop-color="#f048c6"/>
    </linearGradient>
  </defs>
  <path id="Vector" d="M5.307.648l.8,1.592a.983.983,0,0,0,.642.475l1.443.24c.923.154,1.14.823.475,1.483L7.542,5.558a.981.981,0,0,0-.235.818l.321,1.388c.253,1.1-.33,1.524-1.3.949l-1.353-.8a.979.979,0,0,0-.9,0l-1.353.8c-.968.574-1.556.145-1.3-.949l.321-1.388a.981.981,0,0,0-.235-.818L.384,4.437c-.661-.66-.448-1.329.475-1.483L2.3,2.714a.985.985,0,0,0,.638-.475l.8-1.592C4.171-.216,4.877-.216,5.307.648Z" transform="translate(0.976 1.014)" fill="url(#linear-gradient)"/>
  <path id="Vector-2" data-name="Vector" d="M0,0H11V11H0Z" opacity="0" fill="url(#linear-gradient)"/>
</svg>
