<svg id="star" xmlns="http://www.w3.org/2000/svg" xmlns:xlink="http://www.w3.org/1999/xlink" width="11.558" height="11.558" viewBox="0 0 11.558 11.558">
  <defs>
    <linearGradient id="linear-gradient" x1="0.5" x2="0.5" y2="1" gradientUnits="objectBoundingBox">
      <stop offset="0" stop-color="#fec34d"/>
      <stop offset="0.263" stop-color="#f88c83"/>
      <stop offset="1" stop-color="#f048c6"/>
    </linearGradient>
  </defs>
  <path id="Vector" d="M5.576.681l.837,1.672a1.033,1.033,0,0,0,.675.5L8.6,3.1c.97.162,1.2.865.5,1.558L7.924,5.84a1.031,1.031,0,0,0-.247.86l.338,1.458c.266,1.154-.347,1.6-1.369,1L5.224,8.315a1.028,1.028,0,0,0-.941,0l-1.421.841c-1.017.6-1.635.152-1.369-1L1.83,6.7a1.031,1.031,0,0,0-.247-.86L.4,4.661C-.29,3.968-.067,3.265.9,3.1l1.516-.252a1.035,1.035,0,0,0,.67-.5L3.926.681C4.382-.227,5.124-.227,5.576.681Z" transform="translate(1.026 1.065)" fill="url(#linear-gradient)"/>
  <path id="Vector-2" data-name="Vector" d="M0,0H11.558V11.558H0Z" opacity="0" fill="url(#linear-gradient)"/>
</svg>
